<svg width="171" height="75" viewBox="0 0 171 75" fill="none" xmlns="http://www.w3.org/2000/svg">
<path d="M75 37.5C37.5 75 75 37.5 37.5 75C5.5 42 37.5 75 0 37.5C37.5 0 -2 37.5 37.5 0C75 37.5 37.5 0 75 37.5Z" fill="url(#paint0_diamond_85502_94)"/>
<path d="M38 19C34.8355 19 31.742 19.9384 29.1108 21.6965C26.4797 23.4546 24.4289 25.9534 23.2179 28.8771C22.0069 31.8007 21.69 35.0177 22.3074 38.1214C22.9248 41.2251 24.4486 44.0761 26.6863 46.3137C28.9239 48.5513 31.7748 50.0752 34.8785 50.6926C37.9822 51.3099 41.1993 50.9931 44.1229 49.7821C47.0465 48.5711 49.5454 46.5203 51.3035 43.8891C53.0616 41.2579 54 38.1645 54 35L46 35C46 36.5823 45.5308 38.129 44.6517 39.4446C43.7727 40.7602 42.5232 41.7855 41.0614 42.391C39.5996 42.9965 37.9911 43.155 36.4392 42.8463C34.8874 42.5376 33.4619 41.7757 32.3431 40.6569C31.2243 39.538 30.4624 38.1126 30.1537 36.5607C29.845 35.0089 30.0034 33.4003 30.6089 31.9385C31.2144 30.4767 32.2398 29.2273 33.5554 28.3482C34.871 27.4692 36.4177 27 38 27L38 19Z" fill="white"/>
<path d="M38 19C35.8988 19 33.8182 19.4139 31.877 20.2179C29.9358 21.022 28.172 22.2006 26.6863 23.6863C25.2005 25.172 24.022 26.9359 23.2179 28.8771C22.4138 30.8183 22 32.8989 22 35L30 35C30 33.9494 30.2069 32.9091 30.6089 31.9385C31.011 30.9679 31.6002 30.086 32.3431 29.3431C33.086 28.6003 33.9679 28.011 34.9385 27.609C35.9091 27.2069 36.9494 27 38 27L38 19Z" fill="#5CE1E6"/>
<circle cx="38" cy="35" r="5" fill="#5CE1E6"/>
<path d="M43 35C43 34.3434 42.8706 33.6932 42.6194 33.0866C42.3681 32.48 41.9998 31.9288 41.5355 31.4645C41.0712 31.0002 40.52 30.6319 39.9134 30.3806C39.3068 30.1293 38.6566 30 38 30C37.3434 30 36.6932 30.1293 36.0866 30.3806C35.4799 30.6319 34.9287 31.0002 34.4644 31.4645C34.0001 31.9288 33.6318 32.48 33.3806 33.0866C33.1293 33.6932 33 34.3434 33 35L38 35H43Z" fill="white"/>
<path d="M59.63 35.7C59.63 34.464 59.906 33.36 60.458 32.388C61.022 31.404 61.784 30.642 62.744 30.102C63.716 29.55 64.802 29.274 66.002 29.274C67.406 29.274 68.636 29.634 69.692 30.354C70.748 31.074 71.486 32.07 71.906 33.342H69.008C68.72 32.742 68.312 32.292 67.784 31.992C67.268 31.692 66.668 31.542 65.984 31.542C65.252 31.542 64.598 31.716 64.022 32.064C63.458 32.4 63.014 32.88 62.69 33.504C62.378 34.128 62.222 34.86 62.222 35.7C62.222 36.528 62.378 37.26 62.69 37.896C63.014 38.52 63.458 39.006 64.022 39.354C64.598 39.69 65.252 39.858 65.984 39.858C66.668 39.858 67.268 39.708 67.784 39.408C68.312 39.096 68.72 38.64 69.008 38.04H71.906C71.486 39.324 70.748 40.326 69.692 41.046C68.648 41.754 67.418 42.108 66.002 42.108C64.802 42.108 63.716 41.838 62.744 41.298C61.784 40.746 61.022 39.984 60.458 39.012C59.906 38.04 59.63 36.936 59.63 35.7ZM83.5984 32.028L77.4244 46.716H74.7424L76.9024 41.748L72.9064 32.028H75.7324L78.3064 38.994L80.9164 32.028H83.5984ZM87.4768 33.486C87.8008 33.006 88.2448 32.616 88.8088 32.316C89.3848 32.016 90.0388 31.866 90.7708 31.866C91.6228 31.866 92.3908 32.076 93.0748 32.496C93.7708 32.916 94.3168 33.516 94.7128 34.296C95.1208 35.064 95.3248 35.958 95.3248 36.978C95.3248 37.998 95.1208 38.904 94.7128 39.696C94.3168 40.476 93.7708 41.082 93.0748 41.514C92.3908 41.946 91.6228 42.162 90.7708 42.162C90.0268 42.162 89.3728 42.018 88.8088 41.73C88.2568 41.43 87.8128 41.046 87.4768 40.578V42H84.9568V28.68H87.4768V33.486ZM92.7508 36.978C92.7508 36.378 92.6248 35.862 92.3728 35.43C92.1328 34.986 91.8088 34.65 91.4008 34.422C91.0048 34.194 90.5728 34.08 90.1048 34.08C89.6488 34.08 89.2168 34.2 88.8088 34.44C88.4128 34.668 88.0888 35.004 87.8368 35.448C87.5968 35.892 87.4768 36.414 87.4768 37.014C87.4768 37.614 87.5968 38.136 87.8368 38.58C88.0888 39.024 88.4128 39.366 88.8088 39.606C89.2168 39.834 89.6488 39.948 90.1048 39.948C90.5728 39.948 91.0048 39.828 91.4008 39.588C91.8088 39.348 92.1328 39.006 92.3728 38.562C92.6248 38.118 92.7508 37.59 92.7508 36.978ZM106.426 36.798C106.426 37.158 106.402 37.482 106.354 37.77H99.0641C99.1241 38.49 99.3761 39.054 99.8201 39.462C100.264 39.87 100.81 40.074 101.458 40.074C102.394 40.074 103.06 39.672 103.456 38.868H106.174C105.886 39.828 105.334 40.62 104.518 41.244C103.702 41.856 102.7 42.162 101.512 42.162C100.552 42.162 99.6881 41.952 98.9201 41.532C98.1641 41.1 97.5701 40.494 97.1381 39.714C96.7181 38.934 96.5081 38.034 96.5081 37.014C96.5081 35.982 96.7181 35.076 97.1381 34.296C97.5581 33.516 98.1461 32.916 98.9021 32.496C99.6581 32.076 100.528 31.866 101.512 31.866C102.46 31.866 103.306 32.07 104.05 32.478C104.806 32.886 105.388 33.468 105.796 34.224C106.216 34.968 106.426 35.826 106.426 36.798ZM103.816 36.078C103.804 35.43 103.57 34.914 103.114 34.53C102.658 34.134 102.1 33.936 101.44 33.936C100.816 33.936 100.288 34.128 99.8561 34.512C99.4361 34.884 99.1781 35.406 99.0821 36.078H103.816ZM110.785 33.576C111.109 33.048 111.529 32.634 112.045 32.334C112.573 32.034 113.173 31.884 113.845 31.884V34.53H113.179C112.387 34.53 111.787 34.716 111.379 35.088C110.983 35.46 110.785 36.108 110.785 37.032V42H108.265V32.028H110.785V33.576Z" fill="white"/>
<path d="M123.301 29.436V31.47H118.063V34.692H122.077V36.69H118.063V42H115.543V29.436H123.301ZM134.502 32.028V42H131.964V40.74C131.64 41.172 131.214 41.514 130.686 41.766C130.17 42.006 129.606 42.126 128.994 42.126C128.214 42.126 127.524 41.964 126.924 41.64C126.324 41.304 125.85 40.818 125.502 40.182C125.166 39.534 124.998 38.766 124.998 37.878V32.028H127.518V37.518C127.518 38.31 127.716 38.922 128.112 39.354C128.508 39.774 129.048 39.984 129.732 39.984C130.428 39.984 130.974 39.774 131.37 39.354C131.766 38.922 131.964 38.31 131.964 37.518V32.028H134.502ZM142.514 31.884C143.702 31.884 144.662 32.262 145.394 33.018C146.126 33.762 146.492 34.806 146.492 36.15V42H143.972V36.492C143.972 35.7 143.774 35.094 143.378 34.674C142.982 34.242 142.442 34.026 141.758 34.026C141.062 34.026 140.51 34.242 140.102 34.674C139.706 35.094 139.508 35.7 139.508 36.492V42H136.988V32.028H139.508V33.27C139.844 32.838 140.27 32.502 140.786 32.262C141.314 32.01 141.89 31.884 142.514 31.884ZM148.24 36.978C148.24 35.97 148.438 35.076 148.834 34.296C149.242 33.516 149.794 32.916 150.49 32.496C151.186 32.076 151.96 31.866 152.812 31.866C153.46 31.866 154.078 32.01 154.666 32.298C155.254 32.574 155.722 32.946 156.07 33.414V28.68H158.626V42H156.07V40.524C155.758 41.016 155.32 41.412 154.756 41.712C154.192 42.012 153.538 42.162 152.794 42.162C151.954 42.162 151.186 41.946 150.49 41.514C149.794 41.082 149.242 40.476 148.834 39.696C148.438 38.904 148.24 37.998 148.24 36.978ZM156.088 37.014C156.088 36.402 155.968 35.88 155.728 35.448C155.488 35.004 155.164 34.668 154.756 34.44C154.348 34.2 153.91 34.08 153.442 34.08C152.974 34.08 152.542 34.194 152.146 34.422C151.75 34.65 151.426 34.986 151.174 35.43C150.934 35.862 150.814 36.378 150.814 36.978C150.814 37.578 150.934 38.106 151.174 38.562C151.426 39.006 151.75 39.348 152.146 39.588C152.554 39.828 152.986 39.948 153.442 39.948C153.91 39.948 154.348 39.834 154.756 39.606C155.164 39.366 155.488 39.03 155.728 38.598C155.968 38.154 156.088 37.626 156.088 37.014ZM164.904 42.162C164.088 42.162 163.356 42.018 162.708 41.73C162.06 41.43 161.544 41.028 161.16 40.524C160.788 40.02 160.584 39.462 160.548 38.85H163.086C163.134 39.234 163.32 39.552 163.644 39.804C163.98 40.056 164.394 40.182 164.886 40.182C165.366 40.182 165.738 40.086 166.002 39.894C166.278 39.702 166.416 39.456 166.416 39.156C166.416 38.832 166.248 38.592 165.912 38.436C165.588 38.268 165.066 38.088 164.346 37.896C163.602 37.716 162.99 37.53 162.51 37.338C162.042 37.146 161.634 36.852 161.286 36.456C160.95 36.06 160.782 35.526 160.782 34.854C160.782 34.302 160.938 33.798 161.25 33.342C161.574 32.886 162.03 32.526 162.618 32.262C163.218 31.998 163.92 31.866 164.724 31.866C165.912 31.866 166.86 32.166 167.568 32.766C168.276 33.354 168.666 34.152 168.738 35.16H166.326C166.29 34.764 166.122 34.452 165.822 34.224C165.534 33.984 165.144 33.864 164.652 33.864C164.196 33.864 163.842 33.948 163.59 34.116C163.35 34.284 163.23 34.518 163.23 34.818C163.23 35.154 163.398 35.412 163.734 35.592C164.07 35.76 164.592 35.934 165.3 36.114C166.02 36.294 166.614 36.48 167.082 36.672C167.55 36.864 167.952 37.164 168.288 37.572C168.636 37.968 168.816 38.496 168.828 39.156C168.828 39.732 168.666 40.248 168.342 40.704C168.03 41.16 167.574 41.52 166.974 41.784C166.386 42.036 165.696 42.162 164.904 42.162Z" fill="#5CE1E6"/>
<line x1="80.1049" y1="45.0518" x2="170.105" y2="45.0518" stroke="url(#paint1_linear_85502_94)"/>
<defs>
<radialGradient id="paint0_diamond_85502_94" cx="0" cy="0" r="1" gradientUnits="userSpaceOnUse" gradientTransform="translate(37.5 37.5) rotate(90) scale(37.5)">
<stop offset="0.0833333" stop-color="#93D5E3"/>
<stop offset="0.390625" stop-color="#A5C5CB" stop-opacity="0.494444"/>
<stop offset="0.416667" stop-color="#A8C2C8" stop-opacity="0.416667"/>
<stop offset="0.869792" stop-color="#0799B9" stop-opacity="0"/>
</radialGradient>
<linearGradient id="paint1_linear_85502_94" x1="125.105" y1="45.5518" x2="125.105" y2="46.5518" gradientUnits="userSpaceOnUse">
<stop stop-color="#86ECF0"/>
<stop offset="1" stop-color="#DEF9FA" stop-opacity="0"/>
</linearGradient>
</defs>
</svg>
